<svg xmlns="http://www.w3.org/2000/svg" width="32" height="32" viewBox="0 0 32 32" fill="none" class="svg replaced-svg">
<path d="M23.2469 21.9272V16.5672C23.2469 13.6952 21.7139 12.3592 19.6699 12.3592C18.0209 12.3592 17.2819 13.2662 16.8699 13.9032V12.5792H13.7629C13.8039 13.4562 13.7629 21.9272 13.7629 21.9272H16.8699V16.7062C16.8699 16.4272 16.8899 16.1482 16.9729 15.9492C17.1969 15.3912 17.7079 14.8132 18.5659 14.8132C19.6909 14.8132 20.1399 15.6702 20.1399 16.9262V21.9272H23.2469V21.9272ZM10.4899 11.3032C11.5729 11.3032 12.2479 10.5852 12.2479 9.68724C12.2279 8.77024 11.5729 8.07324 10.5099 8.07324C9.44693 8.07324 8.75293 8.77024 8.75293 9.68724C8.75293 10.5842 9.42793 11.3032 10.4699 11.3032H10.4899V11.3032ZM12.0429 21.9272V12.5792H8.93693V21.9272H12.0429Z" fill="black"></path>
</svg>
