<svg xmlns="http://www.w3.org/2000/svg" width="20" height="20" viewBox="0 0 20 20" fill="none">
<path d="M3.15577 16.8429C3.20553 16.8927 3.26461 16.9322 3.32964 16.9592C3.39467 16.9861 3.46438 17 3.53477 17C3.60517 17 3.67488 16.9861 3.73991 16.9592C3.80494 16.9322 3.86402 16.8927 3.91377 16.8429L10.4974 10.2593L17.0837 16.8429C17.1842 16.9434 17.3205 16.9999 17.4627 16.9999C17.6048 16.9999 17.7412 16.9434 17.8417 16.8429C17.9422 16.7424 17.9987 16.606 17.9987 16.4639C17.9987 16.3217 17.9422 16.1854 17.8417 16.0849L11.2554 9.50128L17.839 2.91499C17.9395 2.81447 17.996 2.67814 17.996 2.53599C17.996 2.39383 17.9395 2.2575 17.839 2.15699C17.7385 2.05647 17.6022 2 17.46 2C17.3178 2 17.1815 2.05647 17.081 2.15699L10.4974 8.74328L3.9111 2.15967C3.80862 2.07191 3.6768 2.02605 3.54198 2.03125C3.40716 2.03646 3.27927 2.09235 3.18386 2.18775C3.08846 2.28316 3.03257 2.41105 3.02736 2.54587C3.02216 2.68069 3.06801 2.81251 3.15577 2.91499L9.73939 9.50128L3.15577 16.0876C3.056 16.1879 3 16.3237 3 16.4652C3 16.6067 3.056 16.7425 3.15577 16.8429V16.8429Z" fill="black"/>
</svg>