<svg xmlns="http://www.w3.org/2000/svg" width="32" height="32" viewBox="0 0 32 32" fill="none" class="svg replaced-svg">
<path d="M24.1977 10.6773C23.5514 10.9577 22.8678 11.1431 22.1684 11.2276C22.9063 10.7868 23.4593 10.0932 23.7248 9.27568C23.0313 9.68848 22.2722 9.97932 21.4805 10.1356C20.9513 9.56165 20.2465 9.17963 19.4768 9.0494C18.707 8.91918 17.9159 9.04812 17.2273 9.416C16.5387 9.78389 15.9918 10.3699 15.6722 11.0822C15.3525 11.7944 15.2784 12.5926 15.4613 13.3515C14.0592 13.2806 12.6877 12.9155 11.4359 12.28C10.184 11.6445 9.07993 10.7527 8.19524 9.66263C7.88494 10.2045 7.72189 10.8182 7.7223 11.4426C7.7212 12.0225 7.86351 12.5937 8.13656 13.1052C8.40961 13.6168 8.80492 14.053 9.2873 14.3748C8.72663 14.3595 8.17795 14.2091 7.68791 13.9363V13.9793C7.69211 14.7918 7.97683 15.5779 8.49389 16.2046C9.01096 16.8314 9.72864 17.2603 10.5255 17.4188C10.2188 17.5122 9.90029 17.5614 9.57966 17.565C9.35771 17.5624 9.13632 17.5423 8.91755 17.5048C9.14448 18.2037 9.58363 18.8145 10.1739 19.2522C10.7642 19.6899 11.4762 19.9327 12.2109 19.9469C10.9703 20.9231 9.43854 21.4558 7.85989 21.4603C7.57246 21.4612 7.28525 21.444 7 21.4087C8.6118 22.4494 10.4901 23.0018 12.4087 22.9995C13.7326 23.0132 15.0461 22.763 16.2723 22.2635C17.4984 21.7639 18.6128 21.0251 19.5502 20.09C20.4876 19.155 21.2294 18.0426 21.732 16.8177C22.2347 15.5928 22.4883 14.28 22.478 12.956C22.478 12.8098 22.478 12.655 22.478 12.5003C23.1527 11.9971 23.7347 11.3802 24.1977 10.6773V10.6773Z" fill="black"></path>
</svg>
