<svg xmlns="http://www.w3.org/2000/svg" width="32" height="32" viewBox="0 0 32 32" fill="none" class="svg replaced-svg">
<path d="M14 9C10.686 9 8 11.239 8 14C8 15.592 8.898 17.004 10.291 17.918L9.5 19.5L11.655 18.577C12.117 18.741 12.597 18.876 13.11 18.939C13.038 18.6312 13.0011 18.3161 13 18C13 15.243 15.691 13 19 13C19.303 13 19.599 13.025 19.891 13.061C19.363 10.749 16.928 9 14 9ZM12 12.75C11.8011 12.75 11.6103 12.671 11.4697 12.5303C11.329 12.3897 11.25 12.1989 11.25 12C11.25 11.8011 11.329 11.6103 11.4697 11.4697C11.6103 11.329 11.8011 11.25 12 11.25C12.1989 11.25 12.3897 11.329 12.5303 11.4697C12.671 11.6103 12.75 11.8011 12.75 12C12.75 12.1989 12.671 12.3897 12.5303 12.5303C12.3897 12.671 12.1989 12.75 12 12.75ZM16 12.75C15.8011 12.75 15.6103 12.671 15.4697 12.5303C15.329 12.3897 15.25 12.1989 15.25 12C15.25 11.8011 15.329 11.6103 15.4697 11.4697C15.6103 11.329 15.8011 11.25 16 11.25C16.1989 11.25 16.3897 11.329 16.5303 11.4697C16.671 11.6103 16.75 11.8011 16.75 12C16.75 12.1989 16.671 12.3897 16.5303 12.5303C16.3897 12.671 16.1989 12.75 16 12.75Z" fill="black"></path>
<path d="M24 18C24 15.791 21.761 14 19 14C16.239 14 14 15.791 14 18C14 20.209 16.239 22 19 22C19.454 22 19.886 21.936 20.305 21.845L23 23L22.068 21.137C23.236 20.405 24 19.279 24 18ZM17.5 17.75C17.3011 17.75 17.1103 17.671 16.9697 17.5303C16.829 17.3897 16.75 17.1989 16.75 17C16.75 16.8011 16.829 16.6103 16.9697 16.4697C17.1103 16.329 17.3011 16.25 17.5 16.25C17.6989 16.25 17.8897 16.329 18.0303 16.4697C18.171 16.6103 18.25 16.8011 18.25 17C18.25 17.1989 18.171 17.3897 18.0303 17.5303C17.8897 17.671 17.6989 17.75 17.5 17.75ZM20.5 17.75C20.3011 17.75 20.1103 17.671 19.9697 17.5303C19.829 17.3897 19.75 17.1989 19.75 17C19.75 16.8011 19.829 16.6103 19.9697 16.4697C20.1103 16.329 20.3011 16.25 20.5 16.25C20.6989 16.25 20.8897 16.329 21.0303 16.4697C21.171 16.6103 21.25 16.8011 21.25 17C21.25 17.1989 21.171 17.3897 21.0303 17.5303C20.8897 17.671 20.6989 17.75 20.5 17.75V17.75Z" fill="black"></path>
</svg>
