<svg xmlns="http://www.w3.org/2000/svg" width="32" height="32" viewBox="0 0 32 32" fill="none" class="svg replaced-svg">
<path fill-rule="evenodd" clip-rule="evenodd" d="M22.92 15.657C22.169 14.906 15.838 14.896 15.838 14.897C15.838 14.897 9.508 14.907 8.755 15.657C8.002 16.409 8 20.119 8 20.14C8 20.168 8.001 23.872 8.755 24.624C9.508 25.374 15.838 25.39 15.838 25.39C15.838 25.39 22.168 25.373 22.92 24.624C23.677 23.87 23.683 20.14 23.683 20.14C23.683 20.119 23.674 16.409 22.92 15.657ZM22.3321 19.8337V21.0197H20.5821V21.8947C20.5821 22.1397 20.6121 22.3097 20.6711 22.4047C20.7331 22.4997 20.8351 22.5457 20.9811 22.5457C21.1331 22.5457 21.2391 22.5057 21.2991 22.4257C21.3591 22.3457 21.3911 22.1697 21.3911 21.8947V21.6827H22.3311V21.9217C22.3311 22.3987 22.2181 22.7577 21.9871 23.0007C21.7591 23.2407 21.4161 23.3607 20.9611 23.3607C20.5521 23.3607 20.2281 23.2337 19.9931 22.9777C19.7591 22.7237 19.6391 22.3717 19.6391 21.9227V19.8337C19.6391 19.4317 19.7701 19.1017 20.0281 18.8477C20.2871 18.5937 20.6201 18.4667 21.0301 18.4667C21.4491 18.4667 21.7711 18.5847 21.9961 18.8197C22.2201 19.0547 22.3321 19.3927 22.3321 19.8337ZM20.5821 19.8237V20.2937H21.3901V19.8237C21.3901 19.6287 21.3571 19.4887 21.2931 19.4067C21.2321 19.3197 21.1291 19.2787 20.9901 19.2787C20.8451 19.2787 20.7401 19.3197 20.6761 19.4067C20.6131 19.4887 20.5821 19.6287 20.5821 19.8237ZM18.2681 18.5247C18.5581 18.5247 18.7791 18.6237 18.9311 18.8207C19.0851 19.0187 19.1601 19.3097 19.1601 19.6907V22.2727C19.1601 22.6017 19.0891 22.8537 18.9451 23.0297C18.8031 23.2067 18.5941 23.2927 18.3231 23.2927C18.1431 23.2927 17.9841 23.2597 17.8451 23.1917C17.7051 23.1237 17.5731 23.0207 17.4541 22.8767V23.2337H16.5301V16.9277H17.4541V18.9587C17.5641 18.8282 17.6969 18.7188 17.8461 18.6357C17.9752 18.564 18.1203 18.5258 18.2681 18.5247ZM18.1391 22.4637C18.1911 22.3987 18.2191 22.2937 18.2191 22.1437V19.7407C18.2191 19.5847 18.1861 19.4647 18.1221 19.3837C18.0561 19.3027 17.9601 19.2627 17.8371 19.2627C17.7698 19.2625 17.7034 19.2779 17.6431 19.3077C17.572 19.3433 17.508 19.3914 17.4541 19.4497V22.3487C17.5166 22.4157 17.5904 22.4712 17.6721 22.5127C17.7411 22.5456 17.8166 22.5627 17.8931 22.5627C18.0051 22.5627 18.0871 22.5307 18.1391 22.4637ZM14.9281 22.7217V23.2327H15.8411V18.5797H14.9281V22.1137C14.8411 22.2147 14.7471 22.2967 14.6441 22.3627C14.5695 22.4188 14.4809 22.4531 14.3881 22.4617C14.3031 22.4617 14.2401 22.4377 14.2001 22.3877C14.1631 22.3377 14.1441 22.2587 14.1441 22.1477V18.5797H13.2301V22.4697C13.2301 22.7477 13.2851 22.9537 13.3901 23.0927C13.4991 23.2327 13.6561 23.3007 13.8681 23.3007C14.0391 23.3007 14.2161 23.2527 14.3991 23.1527C14.5831 23.0547 14.7581 22.9107 14.9281 22.7217ZM11.7621 23.2327V17.8437H12.8281V16.9277H9.66406V17.8437H10.7301V23.2327H11.7621Z" fill="black"></path>
<path d="M20.987 12.946H19.957V12.38C19.7892 12.5723 19.5888 12.7334 19.365 12.856C19.1826 12.9591 18.9775 13.0154 18.768 13.02C18.528 13.02 18.35 12.943 18.23 12.791C18.11 12.638 18.049 12.41 18.049 12.104V7.821H19.077V11.75C19.077 11.871 19.101 11.959 19.144 12.013C19.186 12.068 19.257 12.095 19.353 12.095C19.4565 12.085 19.5555 12.0478 19.64 11.987C19.755 11.915 19.862 11.823 19.957 11.711V7.821H20.987V12.946V12.946ZM16.806 8.064C16.533 7.816 16.183 7.691 15.757 7.691C15.29 7.691 14.916 7.809 14.64 8.044C14.362 8.279 14.223 8.595 14.224 8.993V11.649C14.224 12.085 14.36 12.431 14.629 12.689C14.9 12.946 15.261 13.075 15.711 13.075C16.18 13.075 16.546 12.95 16.815 12.701C17.081 12.451 17.214 12.108 17.214 11.67V9.022C17.2192 8.84233 17.1854 8.66367 17.1149 8.4983C17.0445 8.33293 16.9391 8.18477 16.806 8.064V8.064ZM16.164 11.747C16.167 11.8066 16.1576 11.8661 16.1364 11.9219C16.1152 11.9776 16.0827 12.0284 16.041 12.071C15.95 12.1521 15.8307 12.1941 15.709 12.188C15.572 12.188 15.467 12.15 15.395 12.073C15.317 11.9829 15.2772 11.866 15.284 11.747V8.955C15.284 8.843 15.324 8.752 15.402 8.683C15.4879 8.61168 15.5974 8.57495 15.709 8.58C15.844 8.58 15.954 8.614 16.038 8.683C16.122 8.752 16.164 8.843 16.164 8.955V11.747ZM11.419 6H10.251L11.631 10.194V12.946H12.791V10.064L14.14 6H12.961L12.245 8.776H12.172L11.419 6Z" fill="black"></path>
</svg>
